<svg id="svg" version="1.1" width="400" height="316.2689804772234" xmlns="http://www.w3.org/2000/svg" xmlns:xlink="http://www.w3.org/1999/xlink" style="display: block;"><g id="svgg"><path id="path0" d="" stroke="none" fill="#000000" fill-rule="evenodd"></path><path id="path1" d="" stroke="none" fill="#333399" fill-rule="evenodd"></path><path id="path2" d="" stroke="none" fill="#005555" fill-rule="evenodd"></path><path id="path3" d="" stroke="none" fill="#0000ff" fill-rule="evenodd"></path><path id="path4" d="M152.210 22.892 C 152.120 22.984,150.910 23.130,149.520 23.218 C 144.652 23.526,138.761 24.083,138.291 24.279 C 138.030 24.389,135.894 24.727,133.544 25.032 C 128.162 25.729,123.517 26.502,122.386 26.887 C 121.906 27.051,120.660 27.281,119.617 27.399 C 118.575 27.517,117.722 27.713,117.722 27.834 C 117.722 27.956,116.564 28.232,115.150 28.449 C 113.735 28.665,112.346 28.969,112.064 29.124 C 111.782 29.278,110.839 29.556,109.968 29.740 C 109.098 29.925,108.172 30.141,107.911 30.222 C 107.650 30.302,106.725 30.521,105.854 30.709 C 104.984 30.896,103.987 31.178,103.639 31.334 C 103.291 31.491,102.366 31.775,101.582 31.964 C 100.799 32.154,99.945 32.396,99.684 32.502 C 99.228 32.687,97.013 33.346,93.987 34.197 C 93.204 34.418,92.492 34.694,92.405 34.811 C 92.318 34.928,91.537 35.200,90.669 35.415 C 89.801 35.630,88.946 35.916,88.770 36.050 C 88.594 36.184,87.737 36.486,86.867 36.721 C 85.997 36.956,84.929 37.334,84.494 37.560 C 84.059 37.786,83.543 37.972,83.347 37.973 C 83.024 37.975,81.492 38.583,78.956 39.717 C 78.434 39.950,77.615 40.239,77.136 40.358 C 76.657 40.477,76.266 40.702,76.266 40.857 C 76.266 41.012,76.055 41.139,75.797 41.139 C 75.299 41.139,71.153 42.749,70.886 43.047 C 70.799 43.143,70.123 43.418,69.383 43.656 C 68.643 43.894,68.038 44.208,68.038 44.354 C 68.038 44.501,67.878 44.620,67.682 44.620 C 67.166 44.620,63.469 46.298,63.344 46.589 C 63.286 46.725,63.082 46.835,62.891 46.835 C 62.384 46.835,56.506 49.740,56.382 50.052 C 56.324 50.198,56.097 50.316,55.877 50.316 C 55.658 50.316,53.925 51.123,52.027 52.109 C 50.129 53.095,48.257 54.057,47.866 54.245 C 47.476 54.434,47.156 54.695,47.154 54.826 C 47.153 54.956,46.988 55.063,46.787 55.063 C 46.390 55.063,41.396 57.866,41.139 58.233 C 41.052 58.357,40.661 58.559,40.271 58.681 C 39.880 58.802,39.376 59.071,39.151 59.277 C 38.704 59.686,37.670 60.314,36.313 60.999 C 35.835 61.241,35.443 61.555,35.443 61.698 C 35.443 61.840,35.097 62.044,34.674 62.150 C 34.251 62.256,33.717 62.521,33.487 62.738 C 32.899 63.294,29.385 65.618,28.718 65.892 C 28.414 66.017,28.165 66.250,28.165 66.411 C 28.165 66.572,27.844 66.785,27.453 66.884 C 27.061 66.984,26.269 67.498,25.692 68.026 C 25.116 68.555,24.576 68.987,24.492 68.987 C 23.819 68.987,19.937 72.296,19.937 72.870 C 19.937 73.203,27.858 72.819,28.323 72.463 C 28.497 72.330,32.911 72.059,38.133 71.861 C 43.354 71.664,48.552 71.408,49.684 71.293 C 52.536 71.004,90.790 70.991,93.513 71.279 C 94.731 71.408,99.929 71.673,105.063 71.868 C 110.198 72.064,114.541 72.312,114.715 72.420 C 114.889 72.528,117.239 72.790,119.937 73.002 C 122.634 73.214,125.483 73.472,126.266 73.576 C 127.049 73.680,129.612 73.969,131.962 74.218 C 139.787 75.047,153.458 76.939,153.956 77.262 C 154.130 77.374,155.376 77.569,156.725 77.694 C 158.074 77.820,159.177 78.025,159.177 78.151 C 159.177 78.276,160.637 78.562,162.421 78.785 C 164.205 79.008,165.807 79.301,165.981 79.436 C 166.155 79.570,167.615 79.865,169.225 80.090 C 170.835 80.316,172.152 80.606,172.152 80.734 C 172.152 80.862,172.971 81.066,173.972 81.187 C 174.972 81.308,175.934 81.518,176.108 81.653 C 176.282 81.789,177.528 82.084,178.877 82.309 C 180.225 82.534,181.329 82.813,181.329 82.930 C 181.329 83.046,182.395 83.313,183.698 83.523 C 186.690 84.006,187.221 84.770,185.201 85.685 C 184.725 85.901,183.872 86.468,183.307 86.947 C 182.741 87.425,181.958 88.060,181.566 88.357 C 181.175 88.654,180.358 89.295,179.751 89.781 C 179.144 90.267,178.380 90.878,178.052 91.139 C 174.610 93.883,167.326 101.224,163.924 105.379 C 163.315 106.123,162.673 106.891,162.498 107.084 C 161.874 107.775,160.594 109.417,160.127 110.127 C 159.866 110.523,159.331 111.240,158.940 111.719 C 158.548 112.199,158.228 112.753,158.228 112.951 C 158.228 113.149,158.014 113.393,157.753 113.493 C 157.492 113.593,157.278 113.812,157.278 113.979 C 157.278 114.146,156.922 114.749,156.487 115.320 C 156.052 115.890,155.696 116.522,155.696 116.723 C 155.696 116.924,155.564 117.089,155.403 117.089 C 155.242 117.089,154.912 117.480,154.670 117.959 C 153.985 119.315,153.357 120.349,152.948 120.797 C 152.742 121.022,152.473 121.526,152.351 121.916 C 152.230 122.307,152.034 122.698,151.917 122.785 C 151.541 123.064,147.468 131.329,147.468 131.812 C 147.468 132.069,147.326 132.278,147.152 132.278 C 146.978 132.278,146.835 132.430,146.835 132.615 C 146.835 132.800,146.479 133.730,146.044 134.682 C 145.609 135.633,145.253 136.511,145.253 136.633 C 145.253 136.825,145.001 137.512,143.658 140.981 C 143.004 142.669,142.318 144.939,142.009 146.440 C 141.820 147.354,141.565 148.101,141.440 148.101 C 141.316 148.101,141.030 149.241,140.803 150.633 C 140.577 152.025,140.276 153.165,140.133 153.165 C 139.990 153.165,139.873 153.522,139.873 153.959 C 139.873 154.396,139.599 155.998,139.263 157.519 C 138.928 159.040,138.561 161.495,138.448 162.975 C 138.336 164.454,138.158 165.878,138.052 166.139 C 137.476 167.571,137.174 182.533,137.627 187.184 C 138.161 192.657,138.847 197.747,139.376 200.158 C 139.644 201.377,139.865 202.694,139.868 203.085 C 139.871 203.477,139.984 203.797,140.119 203.797 C 140.253 203.797,140.538 204.893,140.751 206.231 C 140.964 207.569,141.259 208.744,141.407 208.842 C 141.555 208.939,141.773 209.639,141.891 210.397 C 142.010 211.155,142.304 212.157,142.545 212.623 C 142.786 213.090,143.083 214.000,143.204 214.647 C 143.326 215.294,143.529 215.823,143.656 215.823 C 143.783 215.823,144.062 216.606,144.276 217.563 C 144.490 218.521,144.798 219.304,144.959 219.304 C 145.121 219.304,145.256 219.553,145.260 219.858 C 145.264 220.162,145.542 221.017,145.878 221.756 C 146.213 222.496,146.429 223.101,146.356 223.101 C 146.129 223.101,143.837 222.003,143.671 221.815 C 143.584 221.716,142.658 221.157,141.614 220.573 C 140.570 219.988,138.542 218.752,137.107 217.825 C 135.673 216.898,134.368 216.139,134.206 216.139 C 134.045 216.139,133.866 216.032,133.808 215.902 C 133.668 215.587,127.839 211.709,127.506 211.709 C 127.363 211.709,127.133 211.530,126.994 211.312 C 126.854 211.094,126.100 210.489,125.316 209.967 C 124.533 209.446,123.726 208.877,123.522 208.703 C 123.319 208.528,122.820 208.131,122.415 207.819 C 122.009 207.507,121.250 206.902,120.728 206.474 C 120.206 206.047,119.672 205.697,119.541 205.697 C 119.411 205.696,119.044 205.447,118.727 205.142 C 118.204 204.641,117.444 204.012,114.429 201.584 C 113.890 201.150,113.287 200.652,113.088 200.477 C 112.889 200.302,112.125 199.660,111.388 199.051 C 110.652 198.441,109.462 197.420,108.743 196.781 C 108.025 196.142,107.081 195.317,106.646 194.947 C 100.169 189.443,86.589 175.651,80.181 168.070 C 79.681 167.479,79.051 166.759,78.780 166.470 C 78.509 166.182,77.310 164.743,76.116 163.273 C 74.921 161.804,73.773 160.459,73.565 160.285 C 73.357 160.111,72.568 159.114,71.813 158.070 C 70.350 156.047,70.052 155.656,69.304 154.775 C 68.799 154.182,68.356 153.542,67.475 152.138 C 66.480 150.551,65.734 151.513,66.579 153.294 C 66.859 153.885,67.089 154.635,67.089 154.962 C 67.089 155.288,67.280 155.836,67.514 156.180 C 67.748 156.523,68.135 157.480,68.374 158.307 C 68.613 159.134,68.905 159.810,69.022 159.810 C 69.139 159.810,69.329 160.184,69.444 160.641 C 69.685 161.601,71.479 165.485,73.886 170.253 C 76.213 174.865,76.701 175.762,77.005 175.985 C 77.150 176.091,77.225 176.234,77.170 176.301 C 77.066 176.431,81.282 183.905,81.613 184.177 C 81.718 184.264,82.018 184.763,82.278 185.285 C 82.539 185.807,82.839 186.305,82.946 186.392 C 83.052 186.479,83.377 186.978,83.668 187.500 C 83.959 188.022,84.475 188.877,84.816 189.399 C 85.157 189.921,85.603 190.669,85.807 191.060 C 86.011 191.452,86.280 191.772,86.405 191.772 C 86.530 191.772,86.809 192.199,87.025 192.722 C 87.242 193.244,87.544 193.671,87.697 193.671 C 87.850 193.671,87.975 193.862,87.975 194.097 C 87.975 194.331,88.259 194.780,88.608 195.095 C 88.956 195.410,89.241 195.864,89.241 196.103 C 89.241 196.343,89.449 196.619,89.703 196.716 C 89.958 196.814,90.252 197.165,90.357 197.496 C 90.462 197.827,90.716 198.276,90.923 198.495 C 91.129 198.714,91.708 199.498,92.211 200.237 C 92.713 200.977,93.247 201.582,93.397 201.582 C 93.548 201.582,93.671 201.760,93.671 201.978 C 93.672 202.340,94.447 203.427,95.705 204.826 C 95.979 205.131,96.203 205.464,96.203 205.567 C 96.203 205.669,96.879 206.558,97.706 207.542 C 98.532 208.526,99.351 209.505,99.525 209.718 C 99.699 209.931,100.009 210.305,100.213 210.551 C 100.417 210.796,101.548 212.181,102.727 213.629 C 103.905 215.077,105.091 216.495,105.362 216.781 C 105.633 217.066,106.566 218.113,107.437 219.107 C 113.242 225.737,118.843 231.377,129.551 241.377 C 130.715 242.464,131.740 243.354,131.827 243.354 C 131.914 243.354,132.654 243.995,133.471 244.778 C 134.289 245.562,135.054 246.203,135.173 246.203 C 135.292 246.203,135.890 246.665,136.503 247.231 C 137.116 247.797,137.832 248.435,138.092 248.648 C 141.004 251.036,142.106 251.899,142.242 251.899 C 142.332 251.899,142.673 252.148,143.000 252.453 C 143.711 253.113,144.513 253.729,146.835 255.395 C 147.793 256.082,148.975 256.980,149.463 257.391 C 149.950 257.802,150.734 258.337,151.203 258.579 C 151.673 258.821,152.199 259.127,152.373 259.260 C 152.547 259.393,153.243 259.927,153.920 260.447 C 154.597 260.967,155.283 261.392,155.446 261.392 C 155.608 261.392,155.940 261.570,156.183 261.788 C 157.108 262.618,157.525 262.923,158.416 263.425 C 158.922 263.710,159.763 264.222,160.285 264.563 C 160.807 264.904,161.697 265.424,162.263 265.719 C 162.828 266.015,163.291 266.372,163.291 266.514 C 163.291 266.656,163.441 266.772,163.624 266.772 C 163.899 266.772,169.525 269.837,171.203 270.900 C 171.464 271.066,172.532 271.635,173.576 272.164 C 174.620 272.694,175.688 273.258,175.949 273.419 C 176.210 273.579,177.706 274.299,179.272 275.020 C 180.839 275.740,183.144 276.814,184.395 277.405 C 185.646 277.997,186.785 278.486,186.927 278.492 C 187.068 278.498,187.753 278.778,188.449 279.114 C 189.146 279.450,189.842 279.730,189.997 279.736 C 190.152 279.742,190.864 280.019,191.579 280.351 C 193.614 281.296,195.026 281.873,195.886 282.110 C 196.321 282.230,197.104 282.519,197.627 282.752 C 198.149 282.985,199.110 283.274,199.763 283.395 C 200.415 283.516,200.949 283.733,200.949 283.877 C 200.949 284.021,201.592 284.235,202.377 284.353 C 203.163 284.470,203.874 284.678,203.959 284.815 C 204.043 284.951,204.860 285.238,205.774 285.453 C 206.689 285.667,207.579 285.945,207.753 286.070 C 207.927 286.195,208.995 286.483,210.127 286.709 C 211.258 286.935,212.333 287.235,212.516 287.375 C 212.698 287.516,213.482 287.727,214.256 287.846 C 215.031 287.964,215.807 288.167,215.981 288.298 C 216.155 288.428,217.366 288.716,218.671 288.938 C 219.976 289.160,221.187 289.447,221.361 289.577 C 221.535 289.706,223.101 289.987,224.842 290.200 C 226.582 290.413,228.149 290.696,228.323 290.828 C 228.497 290.960,230.206 291.238,232.120 291.446 C 234.035 291.654,235.886 291.949,236.234 292.101 C 238.128 292.927,262.518 293.783,263.446 293.055 C 263.622 292.917,265.401 292.705,267.400 292.583 C 269.398 292.461,271.107 292.253,271.197 292.119 C 271.287 291.986,272.855 291.699,274.682 291.481 C 276.508 291.263,278.075 290.984,278.163 290.860 C 278.251 290.737,279.462 290.451,280.854 290.224 C 282.247 289.997,283.528 289.704,283.703 289.573 C 283.877 289.442,284.913 289.151,286.006 288.926 C 287.099 288.701,288.069 288.395,288.161 288.246 C 288.253 288.097,288.640 287.974,289.022 287.973 C 289.403 287.972,290.086 287.777,290.540 287.541 C 290.993 287.304,292.097 286.935,292.992 286.720 C 293.888 286.505,294.620 286.230,294.620 286.110 C 294.620 285.989,295.154 285.731,295.807 285.537 C 297.623 284.995,300.140 284.042,300.316 283.828 C 300.403 283.722,301.044 283.452,301.741 283.228 C 302.437 283.003,303.078 282.734,303.165 282.628 C 303.252 282.523,305.245 281.463,307.595 280.272 C 312.421 277.827,313.697 277.140,313.924 276.867 C 314.011 276.763,314.438 276.494,314.873 276.270 C 315.723 275.832,320.940 272.447,321.203 272.163 C 321.290 272.069,321.997 271.565,322.774 271.043 C 323.552 270.522,324.431 269.881,324.729 269.620 C 325.027 269.359,325.459 268.999,325.689 268.819 C 329.968 265.479,333.382 262.441,336.659 259.060 C 337.818 257.864,339.478 256.153,340.348 255.256 C 341.218 254.360,342.352 253.060,342.867 252.367 C 343.382 251.674,343.976 250.965,344.186 250.791 C 344.733 250.339,349.897 243.350,350.383 242.405 C 350.607 241.970,350.968 241.500,351.186 241.361 C 351.404 241.222,351.582 240.966,351.582 240.794 C 351.582 240.621,351.727 240.308,351.903 240.097 C 352.516 239.368,353.797 237.312,353.797 237.060 C 353.797 236.920,354.082 236.477,354.430 236.076 C 354.778 235.675,355.063 235.165,355.063 234.943 C 355.063 234.721,355.255 234.347,355.489 234.113 C 356.152 233.450,361.076 223.215,361.076 222.500 C 361.076 222.308,361.207 222.152,361.367 222.152 C 361.527 222.152,361.756 221.689,361.875 221.123 C 361.995 220.558,362.284 219.668,362.519 219.146 C 363.194 217.645,363.948 215.472,364.330 213.924 C 364.523 213.141,364.779 212.429,364.897 212.342 C 365.016 212.255,365.297 211.329,365.521 210.285 C 365.744 209.241,366.030 208.244,366.155 208.070 C 366.280 207.896,366.564 206.685,366.786 205.380 C 367.008 204.074,367.293 202.864,367.420 202.690 C 367.547 202.516,367.746 201.590,367.863 200.633 C 367.980 199.676,368.210 198.536,368.374 198.101 C 369.421 195.323,370.458 171.828,369.659 168.987 C 369.488 168.378,369.182 165.886,368.980 163.450 C 368.778 161.013,368.503 158.949,368.371 158.861 C 368.238 158.774,368.026 157.778,367.901 156.649 C 367.776 155.519,367.564 154.451,367.431 154.275 C 367.298 154.100,367.008 152.888,366.786 151.582 C 366.564 150.277,366.272 149.066,366.137 148.892 C 366.002 148.718,365.722 147.752,365.516 146.745 C 365.309 145.737,364.939 144.527,364.692 144.055 C 364.446 143.583,364.243 142.911,364.241 142.563 C 364.238 142.215,364.037 141.548,363.794 141.081 C 363.550 140.615,363.255 139.796,363.138 139.262 C 363.020 138.728,362.811 138.291,362.673 138.291 C 362.534 138.291,362.333 137.853,362.226 137.317 C 362.119 136.780,361.829 135.890,361.581 135.339 C 361.334 134.787,360.731 133.410,360.242 132.278 C 359.753 131.147,359.242 130.174,359.107 130.116 C 358.972 130.058,358.861 129.838,358.861 129.627 C 358.861 129.195,356.617 124.767,355.101 122.208 C 354.552 121.281,353.893 120.071,353.637 119.518 C 352.819 117.754,351.208 115.035,350.915 114.926 C 350.760 114.868,350.632 114.655,350.630 114.451 C 350.628 114.248,349.774 112.820,348.731 111.276 C 347.689 109.733,346.835 108.392,346.835 108.296 C 346.835 108.201,346.622 107.897,346.360 107.621 C 345.402 106.611,343.354 103.807,343.354 103.506 C 343.354 103.336,343.176 103.082,342.957 102.943 C 342.738 102.804,342.138 102.125,341.623 101.435 C 341.108 100.745,340.468 99.947,340.201 99.662 C 339.934 99.377,339.217 98.535,338.608 97.791 C 337.998 97.046,337.002 95.893,336.392 95.228 C 335.783 94.563,334.217 92.851,332.911 91.423 C 330.698 89.002,329.046 87.366,326.741 85.311 C 326.218 84.845,324.995 83.723,324.022 82.817 C 323.049 81.912,321.652 80.688,320.918 80.097 C 320.183 79.507,319.199 78.699,318.731 78.303 C 317.726 77.453,314.999 75.200,314.044 74.432 C 313.674 74.135,313.053 73.679,312.663 73.418 C 312.273 73.157,311.436 72.537,310.803 72.041 C 310.170 71.544,308.869 70.622,307.911 69.991 C 306.954 69.360,306.010 68.698,305.814 68.520 C 305.380 68.126,305.101 67.939,301.108 65.363 C 299.367 64.241,297.801 63.208,297.627 63.069 C 297.453 62.930,296.883 62.603,296.361 62.342 C 295.839 62.081,295.340 61.788,295.253 61.690 C 294.980 61.381,286.682 56.646,286.415 56.646 C 286.276 56.646,285.822 56.380,285.407 56.056 C 284.992 55.732,284.296 55.357,283.861 55.222 C 283.426 55.088,282.998 54.876,282.911 54.752 C 282.688 54.433,274.256 50.316,273.825 50.316 C 273.630 50.316,273.423 50.210,273.365 50.079 C 273.257 49.836,271.859 49.131,268.513 47.631 C 266.420 46.694,265.430 46.248,263.270 45.273 C 262.476 44.914,261.586 44.620,261.292 44.620 C 260.999 44.620,260.759 44.483,260.759 44.316 C 260.759 44.149,260.171 43.853,259.452 43.660 C 258.733 43.466,257.914 43.181,257.632 43.026 C 256.806 42.571,254.171 41.457,253.894 41.445 C 253.754 41.439,253.070 41.159,252.373 40.823 C 251.677 40.486,250.894 40.202,250.633 40.190 C 250.372 40.178,249.589 39.893,248.892 39.557 C 248.196 39.221,247.406 38.941,247.136 38.935 C 246.866 38.929,246.510 38.799,246.345 38.646 C 246.180 38.493,245.475 38.196,244.778 37.986 C 244.082 37.776,243.085 37.414,242.563 37.182 C 242.041 36.951,241.080 36.662,240.427 36.542 C 239.775 36.421,239.241 36.211,239.241 36.076 C 239.241 35.941,238.706 35.731,238.054 35.610 C 237.401 35.489,236.440 35.202,235.918 34.971 C 235.396 34.740,233.687 34.167,232.120 33.698 C 230.554 33.228,228.845 32.658,228.323 32.431 C 227.801 32.203,226.697 31.917,225.870 31.795 C 225.044 31.673,224.367 31.466,224.367 31.335 C 224.367 31.204,223.691 30.941,222.864 30.752 C 219.628 30.009,217.225 29.371,216.764 29.131 C 216.498 28.993,215.216 28.693,213.915 28.465 C 212.615 28.237,211.479 27.959,211.392 27.848 C 211.240 27.653,210.620 27.529,204.272 26.428 C 202.706 26.156,200.997 25.800,200.475 25.636 C 199.953 25.472,197.816 25.164,195.728 24.952 C 193.639 24.740,191.859 24.471,191.772 24.354 C 191.685 24.237,189.763 23.988,187.500 23.801 C 185.237 23.614,183.030 23.360,182.595 23.237 C 181.674 22.977,152.453 22.645,152.210 22.892 M259.810 106.957 C 261.464 107.093,263.293 107.304,263.876 107.424 C 264.459 107.544,266.096 107.838,267.515 108.077 C 271.200 108.696,274.815 109.535,275.000 109.812 C 275.087 109.943,275.977 110.233,276.978 110.455 C 277.979 110.678,278.797 110.980,278.797 111.126 C 278.797 111.273,279.025 111.392,279.303 111.392 C 279.582 111.392,280.258 111.592,280.807 111.836 C 286.078 114.182,287.674 114.960,289.557 116.102 C 290.166 116.472,291.021 116.953,291.456 117.171 C 292.761 117.826,296.026 120.064,296.297 120.490 C 296.437 120.708,296.701 120.886,296.885 120.886 C 297.198 120.886,297.584 121.168,300.264 123.350 C 302.184 124.914,309.177 131.895,309.177 132.248 C 309.177 132.439,309.290 132.595,309.429 132.595 C 309.567 132.595,310.243 133.343,310.932 134.256 C 311.620 135.170,312.290 135.965,312.421 136.023 C 312.551 136.081,312.658 136.323,312.658 136.561 C 312.658 136.799,312.853 137.108,313.090 137.247 C 313.480 137.476,313.790 137.954,315.128 140.388 C 315.355 140.801,315.675 141.139,315.840 141.139 C 316.005 141.139,316.139 141.343,316.139 141.591 C 316.139 141.840,316.321 142.232,316.543 142.462 C 317.099 143.039,320.812 150.591,321.065 151.661 C 321.179 152.140,321.382 152.532,321.518 152.532 C 321.654 152.532,321.865 153.066,321.987 153.718 C 322.109 154.371,322.481 155.502,322.814 156.233 C 323.146 156.963,323.420 157.746,323.422 157.973 C 323.424 158.200,323.709 159.289,324.055 160.392 C 324.401 161.495,324.684 162.801,324.684 163.293 C 324.684 163.785,324.817 164.235,324.981 164.293 C 325.145 164.351,325.441 166.250,325.639 168.513 C 325.838 170.775,326.141 173.125,326.313 173.734 C 326.623 174.835,326.531 181.916,326.174 184.335 C 326.071 185.032,325.819 187.203,325.614 189.161 C 325.409 191.119,325.135 192.722,325.006 192.722 C 324.876 192.722,324.676 193.531,324.559 194.520 C 324.443 195.510,324.233 196.471,324.093 196.656 C 323.953 196.842,323.657 197.848,323.435 198.892 C 323.213 199.937,322.915 200.935,322.773 201.112 C 322.631 201.288,322.345 202.107,322.138 202.931 C 321.930 203.756,321.635 204.430,321.481 204.430 C 321.328 204.430,321.203 204.640,321.203 204.896 C 321.203 205.152,320.847 206.139,320.411 207.091 C 319.976 208.042,319.620 208.960,319.620 209.131 C 319.620 209.301,319.513 209.488,319.383 209.546 C 319.252 209.604,318.647 210.649,318.038 211.867 C 317.429 213.085,316.824 214.130,316.693 214.188 C 316.563 214.246,316.456 214.427,316.456 214.590 C 316.456 214.886,314.896 217.420,314.528 217.722 C 314.422 217.809,314.152 218.227,313.929 218.651 C 313.705 219.075,313.403 219.574,313.258 219.759 C 313.113 219.944,312.349 220.912,311.560 221.910 C 310.772 222.908,310.127 223.787,310.127 223.863 C 310.127 223.939,309.593 224.557,308.940 225.237 C 308.287 225.918,306.889 227.389,305.833 228.506 C 303.909 230.541,301.557 232.656,299.200 234.468 C 298.509 235.000,297.735 235.615,297.480 235.835 C 297.225 236.054,296.774 236.377,296.478 236.551 C 296.181 236.725,294.965 237.520,293.776 238.318 C 290.124 240.769,282.954 244.619,282.040 244.620 C 281.822 244.620,281.112 244.905,280.462 245.253 C 279.813 245.601,279.118 245.886,278.917 245.886 C 278.717 245.886,278.149 246.096,277.655 246.352 C 277.161 246.608,276.148 246.909,275.404 247.021 C 274.660 247.132,274.051 247.333,274.051 247.467 C 274.051 247.600,272.911 247.895,271.519 248.121 C 270.127 248.347,268.987 248.636,268.987 248.764 C 268.987 248.892,267.884 249.097,266.535 249.220 C 265.186 249.343,263.882 249.604,263.638 249.801 C 263.015 250.302,244.264 250.302,243.640 249.801 C 243.396 249.605,242.199 249.341,240.981 249.216 C 239.763 249.091,238.623 248.877,238.449 248.742 C 238.275 248.606,237.139 248.326,235.924 248.118 C 234.709 247.911,233.569 247.627,233.392 247.488 C 233.215 247.349,232.286 247.055,231.329 246.835 C 230.372 246.616,229.446 246.342,229.272 246.227 C 229.098 246.112,228.386 245.824,227.690 245.588 C 224.587 244.532,215.625 240.104,214.873 239.255 C 214.631 238.981,212.061 237.342,211.874 237.342 C 211.783 237.342,211.460 237.118,211.155 236.844 C 210.107 235.902,208.702 234.811,208.537 234.811 C 207.639 234.808,197.359 224.363,195.372 221.434 C 194.872 220.697,194.344 220.007,194.197 219.900 C 193.923 219.701,193.479 218.978,192.518 217.168 C 192.217 216.602,191.855 216.139,191.714 216.139 C 191.572 216.139,191.456 216.000,191.456 215.829 C 191.456 215.658,190.980 214.768,190.399 213.851 C 189.175 211.921,186.837 207.110,186.532 205.894 C 186.418 205.437,186.213 205.063,186.077 205.063 C 185.941 205.063,185.742 204.600,185.635 204.035 C 185.527 203.469,185.230 202.606,184.975 202.116 C 184.719 201.626,184.335 200.380,184.122 199.347 C 183.909 198.314,183.639 197.468,183.522 197.468 C 183.405 197.468,183.211 196.723,183.090 195.813 C 182.969 194.902,182.748 194.082,182.598 193.989 C 182.448 193.896,182.142 192.078,181.918 189.948 C 181.694 187.819,181.399 186.076,181.262 186.076 C 180.909 186.076,180.951 171.627,181.306 170.961 C 181.467 170.659,181.768 168.738,181.976 166.693 C 182.184 164.648,182.480 162.975,182.633 162.975 C 182.786 162.975,182.911 162.643,182.911 162.237 C 182.911 161.219,185.370 153.244,186.087 151.936 C 186.241 151.655,186.743 150.570,187.201 149.525 C 188.394 146.808,189.369 144.804,189.587 144.620 C 189.814 144.430,190.660 142.896,191.202 141.693 C 191.418 141.214,191.688 140.823,191.803 140.823 C 191.918 140.823,192.189 140.396,192.405 139.873 C 192.621 139.351,192.901 138.924,193.026 138.924 C 193.151 138.924,193.417 138.563,193.619 138.121 C 193.820 137.679,194.132 137.145,194.311 136.934 C 194.491 136.723,195.244 135.767,195.985 134.810 C 199.312 130.511,204.751 125.066,208.864 121.917 C 212.292 119.293,219.867 114.650,221.949 113.897 C 222.583 113.668,223.101 113.367,223.101 113.228 C 223.101 113.088,223.350 112.973,223.655 112.972 C 223.960 112.970,224.921 112.619,225.791 112.191 C 226.661 111.762,227.614 111.408,227.909 111.402 C 228.203 111.397,228.523 111.264,228.620 111.108 C 228.716 110.951,229.544 110.648,230.458 110.433 C 231.372 110.219,232.263 109.935,232.437 109.803 C 232.611 109.671,233.608 109.397,234.652 109.195 C 235.696 108.993,236.835 108.698,237.184 108.538 C 237.532 108.379,238.956 108.092,240.348 107.900 C 241.741 107.708,243.236 107.475,243.671 107.382 C 246.523 106.775,254.919 106.553,259.810 106.957 M247.310 134.854 C 245.918 135.007,244.494 135.260,244.146 135.417 C 243.797 135.575,242.618 135.879,241.526 136.093 C 240.433 136.307,239.463 136.605,239.371 136.754 C 239.279 136.903,238.984 137.025,238.716 137.025 C 237.825 137.025,231.150 140.197,230.070 141.133 C 229.665 141.485,229.149 141.772,228.923 141.772 C 228.697 141.772,228.399 141.951,228.259 142.169 C 228.120 142.387,227.373 142.992,226.599 143.514 C 221.627 146.864,215.371 154.712,212.849 160.759 C 212.595 161.369,212.105 162.508,211.760 163.291 C 211.416 164.074,211.031 165.285,210.905 165.981 C 210.780 166.677,210.551 167.406,210.397 167.601 C 210.243 167.796,209.967 169.505,209.784 171.399 C 209.600 173.292,209.317 175.279,209.155 175.814 C 208.763 177.109,208.778 180.924,209.177 181.171 C 209.351 181.278,209.495 182.106,209.496 183.009 C 209.499 184.930,210.015 188.489,210.422 189.399 C 210.578 189.747,210.850 190.601,211.027 191.297 C 211.434 192.905,212.441 195.679,212.691 195.886 C 212.797 195.973,213.057 196.578,213.270 197.231 C 213.483 197.884,213.773 198.418,213.914 198.418 C 214.056 198.418,214.264 198.785,214.377 199.234 C 214.590 200.085,216.122 202.612,216.535 202.795 C 216.665 202.853,216.772 203.055,216.772 203.243 C 216.772 203.432,216.986 203.812,217.247 204.087 C 217.509 204.363,218.398 205.443,219.223 206.487 C 221.789 209.735,227.119 214.557,228.143 214.557 C 228.329 214.557,228.481 214.682,228.481 214.835 C 228.481 214.988,228.908 215.290,229.430 215.506 C 229.953 215.723,230.380 215.989,230.380 216.099 C 230.381 216.208,231.271 216.724,232.358 217.245 C 233.446 217.767,234.407 218.285,234.494 218.397 C 234.581 218.509,235.293 218.788,236.076 219.016 C 236.859 219.244,237.571 219.524,237.658 219.638 C 237.884 219.932,241.901 221.107,244.146 221.535 C 245.190 221.734,246.614 222.019,247.310 222.169 C 248.942 222.520,258.224 222.505,260.285 222.148 C 264.657 221.391,267.750 220.548,270.095 219.472 C 270.617 219.232,271.436 218.939,271.915 218.819 C 272.393 218.700,272.785 218.475,272.785 218.320 C 272.785 218.165,273.009 218.038,273.282 218.038 C 273.752 218.038,276.558 216.557,276.899 216.129 C 276.986 216.020,277.520 215.729,278.085 215.483 C 278.651 215.237,279.114 214.942,279.114 214.827 C 279.114 214.712,279.862 214.119,280.775 213.509 C 283.273 211.841,289.873 205.082,289.873 204.192 C 289.873 204.012,290.087 203.783,290.348 203.683 C 290.609 203.583,290.823 203.353,290.823 203.171 C 290.823 202.990,291.321 202.133,291.930 201.266 C 292.540 200.399,293.038 199.606,293.038 199.502 C 293.038 199.399,293.608 198.165,294.304 196.759 C 295.000 195.353,295.570 193.950,295.570 193.639 C 295.570 193.329,295.702 192.993,295.865 192.893 C 296.027 192.793,296.319 191.894,296.514 190.896 C 296.709 189.899,297.001 188.797,297.162 188.449 C 298.473 185.626,298.476 171.285,297.167 168.513 C 297.003 168.165,296.709 167.063,296.514 166.066 C 296.319 165.068,296.027 164.169,295.865 164.069 C 295.702 163.969,295.570 163.678,295.570 163.423 C 295.570 162.795,292.736 156.831,292.375 156.698 C 292.218 156.640,292.089 156.434,292.089 156.241 C 292.089 155.939,290.664 153.631,290.189 153.165 C 290.100 153.078,289.427 152.198,288.693 151.211 C 285.560 146.998,277.107 140.098,274.179 139.363 C 273.760 139.258,273.418 139.068,273.418 138.940 C 273.418 138.813,272.813 138.514,272.073 138.276 C 271.333 138.038,270.657 137.750,270.570 137.635 C 270.483 137.521,269.059 137.049,267.405 136.587 C 265.752 136.124,263.967 135.609,263.440 135.441 C 260.772 134.592,252.458 134.290,247.310 134.854 " stroke="none" fill="#ffffff" fill-rule="evenodd"></path></g></svg>